name C:\Users\r0593348\3dpredictsim\Results\Batchsim_tmt_linear\Pog_s1_tmt_aCst_d02_k800_ig24_act.mot
datacolumns 128
datarows 4
range 0.62945039 0.66721742
endheader
time	pelvis_tilt	pelvis_list	pelvis_rotation	pelvis_tx	pelvis_ty	pelvis_tz	hip_flexion_l	hip_adduction_l	hip_rotation_l	hip_flexion_r	hip_adduction_r	hip_rotation_r	knee_angle_l	knee_angle_r	ankle_angle_l	ankle_angle_r	subtalar_angle_l	subtalar_angle_r	tmt_angle_l	tmt_angle_r	mtp_angle_l	mtp_angle_r	lumbar_extension	lumbar_bending	lumbar_rotation	arm_flex_l	arm_add_l	arm_rot_l	arm_flex_r	arm_add_r	arm_rot_r	elbow_flex_l	elbow_flex_r	pro_sup_l	pro_sup_r	glut_med1_l/activation	glut_med2_l/activation	glut_med3_l/activation	glut_min1_l/activation	glut_min2_l/activation	glut_min3_l/activation	semimem_l/activation	semiten_l/activation	bifemlh_l/activation	bifemsh_l/activation	sar_l/activation	add_long_l/activation	add_brev_l/activation	add_mag1_l/activation	add_mag2_l/activation	add_mag3_l/activation	tfl_l/activation	pect_l/activation	grac_l/activation	glut_max1_l/activation	glut_max2_l/activation	glut_max3_l/activation	iliacus_l/activation	psoas_l/activation	quad_fem_l/activation	gem_l/activation	peri_l/activation	rect_fem_l/activation	vas_med_l/activation	vas_int_l/activation	vas_lat_l/activation	med_gas_l/activation	lat_gas_l/activation	soleus_l/activation	tib_post_l/activation	flex_dig_l/activation	flex_hal_l/activation	tib_ant_l/activation	per_brev_l/activation	per_long_l/activation	per_tert_l/activation	ext_dig_l/activation	ext_hal_l/activation	ercspn_l/activation	intobl_l/activation	extobl_l/activation	glut_med1_r/activation	glut_med2_r/activation	glut_med3_r/activation	glut_min1_r/activation	glut_min2_r/activation	glut_min3_r/activation	semimem_r/activation	semiten_r/activation	bifemlh_r/activation	bifemsh_r/activation	sar_r/activation	add_long_r/activation	add_brev_r/activation	add_mag1_r/activation	add_mag2_r/activation	add_mag3_r/activation	tfl_r/activation	pect_r/activation	grac_r/activation	glut_max1_r/activation	glut_max2_r/activation	glut_max3_r/activation	iliacus_r/activation	psoas_r/activation	quad_fem_r/activation	gem_r/activation	peri_r/activation	rect_fem_r/activation	vas_med_r/activation	vas_int_r/activation	vas_lat_r/activation	med_gas_r/activation	lat_gas_r/activation	soleus_r/activation	tib_post_r/activation	flex_dig_r/activation	flex_hal_r/activation	tib_ant_r/activation	per_brev_r/activation	per_long_r/activation	per_tert_r/activation	ext_dig_r/activation	ext_hal_r/activation	ercspn_r/activation	intobl_r/activation	extobl_r/activation	
          0.62945039	         -2.92876928	          1.31807519	         -8.62559924	          0.78681299	          0.85583072	          0.00272703	         33.33937019	          0.56986715	         -0.55308627	        -16.65461735	         -2.48946506	          8.74588384	        -15.33533818	        -15.71528724	          9.53912399	         -9.51773279	         -0.98249096	         14.39663779	          0.02790006	          1.24819075	         -0.08646306	         30.16609009	         -0.65988158	          1.13065585	          3.37739307	        -11.02022098	        -13.63475153	         10.46201664	          3.78323261	        -13.53128138	         18.53218882	         16.74635345	         46.22901655	         86.51662706	         86.51662706	          0.09498583	          0.05000019	          0.05000119	          0.05000021	          0.05000026	          0.05000070	          0.18960749	          0.06049140	          0.13343884	          0.05986958	          0.05000380	          0.06375007	          0.09394785	          0.21880406	          0.15953276	          0.12054692	          0.05000114	          0.06048344	          0.06049724	          0.05000060	          0.06600085	          0.10611093	          0.06049143	          0.06049464	          0.22405575	          0.05000724	          0.05000107	          0.05000030	          0.06500958	          0.08387566	          0.06835523	          0.06049085	          0.06049088	          0.06049083	          0.05003668	          0.05000114	          0.06049116	          0.48738675	          0.33036265	          0.20727116	          0.08595168	          0.56233402	          0.29363502	          0.05000028	          0.13949895	          0.11353629	          0.14071823	          0.07318898	          0.08606717	          0.19908743	          0.12960138	          0.08322337	          0.05000271	          0.05000030	          0.05000030	          0.05000059	          0.08472175	          0.05304807	          0.05000034	          0.05000037	          0.05000078	          0.05000061	          0.17287230	          0.05000264	          0.05000076	          0.05000729	          0.05000372	          0.05000151	          0.41470603	          0.61530534	          0.05000104	          0.05000292	          0.07318337	          0.26924018	          0.09366461	          0.07121129	          0.07646515	          0.15388488	          0.22801901	          0.05884935	          0.15875811	          0.19433691	          0.20974443	          0.05000003	          0.36226553	          0.34064444	          0.05000013	          0.23025695	          0.05000018	          0.05000000	          0.05000005	          0.05000007	
          0.64203940	         -2.92957906	          1.26774301	         -8.83950577	          0.80726197	          0.85433147	          0.00238705	         32.65172388	          0.84551537	         -0.34156030	        -16.89546985	         -2.74643695	          8.43977582	        -15.39019180	        -16.92186318	          8.90355599	        -12.56135345	         -1.39256085	         14.89800890	          0.04860420	          1.13744834	         -0.08101905	         31.74251331	         -0.39319106	          0.96948241	          3.49162027	        -12.53238459	        -13.62372674	         10.29210817	          3.23130065	        -13.60677868	         18.75767619	         16.76991196	         47.58598647	         86.51662706	         86.51662706	          0.08383905	          0.06763405	          0.05000024	          0.06049122	          0.06048996	          0.05000279	          0.15672429	          0.05000057	          0.11029681	          0.05000026	          0.05000307	          0.05269417	          0.07765474	          0.22404122	          0.20502350	          0.14135012	          0.05000054	          0.05000154	          0.05000549	          0.06049076	          0.10436726	          0.12742473	          0.05000093	          0.05000339	          0.39754683	          0.06049210	          0.07267867	          0.07318261	          0.21842445	          0.22135504	          0.19480222	          0.05000002	          0.05000004	          0.05000000	          0.05000008	          0.07318170	          0.05000100	          0.66858929	          0.37092392	          0.23865797	          0.50303654	          0.64723248	          0.45137239	          0.05000001	          0.11530586	          0.09384585	          0.11631375	          0.06049605	          0.07114085	          0.16456011	          0.10712490	          0.06879027	          0.05000217	          0.05000021	          0.05000027	          0.05000059	          0.07002900	          0.15150747	          0.14170113	          0.10560756	          0.05000622	          0.05000118	          0.14289138	          0.08856519	          0.05543324	          0.05000215	          0.05000136	          0.05000115	          0.34278421	          0.50859390	          0.07316923	          0.07316113	          0.06049171	          0.22254625	          0.08702757	          0.12958622	          0.09990268	          0.12719685	          0.18847401	          0.05000000	          0.13122493	          0.16063338	          0.17336878	          0.23365653	          0.39763497	          0.32670414	          0.48348991	          0.41478691	          0.19280063	          0.05293060	          0.07274076	          0.06049062	
          0.65462841	         -2.92480850	          1.21916427	         -9.01484470	          0.82790581	          0.85248600	          0.00206492	         31.83590943	          1.11237687	         -0.06695416	        -16.92901099	         -2.95993481	          8.12444989	        -16.08386249	        -18.51974445	          8.13217635	        -15.30983409	         -1.82214284	         15.34808284	         -0.04718794	          0.91673645	         -0.15301413	         32.37672325	         -0.12221737	          0.79162838	          3.58648388	        -14.01775606	        -13.62050819	         10.20267706	          2.61205326	        -13.69363233	         18.90847459	         16.75257660	         48.92462763	         86.51662706	         86.51662706	          0.25269720	          0.26776381	          0.43463015	          0.05000073	          0.05000029	          0.34191740	          0.13501180	          0.05000093	          0.11194607	          0.05000020	          0.05000049	          0.07318326	          0.18912487	          0.25288772	          0.22550229	          0.17125392	          0.05000028	          0.06054617	          0.13454080	          0.05000017	          0.18663498	          0.18084074	          0.05850890	          0.05000088	          0.32860098	          0.05000136	          0.28255242	          0.06049068	          0.18054348	          0.18296584	          0.16101802	          0.06049080	          0.06049081	          0.06049083	          0.06049075	          0.06049048	          0.06049084	          0.56108457	          0.37478377	          0.19726808	          0.42442392	          0.66578768	          0.45343267	          0.05376388	          0.09530873	          0.07757031	          0.09614180	          0.05000452	          0.05880316	          0.13602083	          0.08854649	          0.05686021	          0.06261774	          0.06049078	          0.06049104	          0.05000027	          0.05788425	          0.16335943	          0.24613776	          0.12071556	          0.06178485	          0.06619428	          0.11811000	          0.07320689	          0.06049139	          0.05075888	          0.06048946	          0.06049167	          0.28333568	          0.42840740	          0.06049111	          0.06047517	          0.05000078	          0.18395038	          0.07193460	          0.10711233	          0.08257675	          0.10513729	          0.15578724	          0.05011039	          0.10846678	          0.13277501	          0.14330171	          0.37564003	          0.46876948	          0.33213195	          0.71917592	          0.52322231	          0.34226424	          0.07790901	          0.06012547	          0.05000011	
          0.66721742	         -2.91739437	          1.17749582	         -9.14661176	          0.84837077	          0.85040802	          0.00174035	         30.94705077	          1.37628164	          0.23574891	        -16.71113651	         -3.13300809	          7.81529391	        -16.89597679	        -20.57349914	          7.54932444	        -17.38042654	         -2.26839509	         15.70916241	         -0.02281867	          0.65421275	         -0.15874869	         31.18109239	          0.12255025	          0.59382952	          3.66096596	        -15.38768727	        -13.62633614	         10.25355121	          1.98779680	        -13.77757984	         18.98530342	         16.63162559	         50.19997731	         86.51662706	         86.51662706	          0.33358487	          0.42419461	          0.52105691	          0.14153430	          0.22849199	          0.28262006	          0.11159691	          0.10414398	          0.09253149	          0.07318097	          0.05000056	          0.06049123	          0.15632525	          0.20903024	          0.23728515	          0.18956245	          0.05000020	          0.05004601	          0.11120785	          0.28708286	          0.25398238	          0.21819579	          0.05000005	          0.05000006	          0.27161261	          0.06598960	          0.23355016	          0.05000002	          0.14923320	          0.24073282	          0.19400217	          0.05000001	          0.05000002	          0.05000000	          0.05000000	          0.05000017	          0.05000013	          0.73177748	          0.41160817	          0.20316803	          0.68706223	          0.76811771	          0.56322564	          0.06845596	          0.08249493	          0.06411741	          0.15468902	          0.05000029	          0.05000009	          0.14162735	          0.07319017	          0.05000096	          0.09707940	          0.05000021	          0.05000040	          0.05000025	          0.06048641	          0.13502847	          0.20345060	          0.09978022	          0.05106994	          0.05471453	          0.09762648	          0.06051142	          0.05000088	          0.05000139	          0.05000102	          0.05000104	          0.23419724	          0.42012459	          0.05000029	          0.05000066	          0.05000039	          0.15204815	          0.06340670	          0.08853762	          0.08853764	          0.08690349	          0.12876930	          0.05000005	          0.08965556	          0.10974809	          0.11844914	          0.34514244	          0.38747249	          0.28157888	          0.65803424	          0.71678551	          0.28290591	          0.12331137	          0.05000000	          0.05000004	
